<svg width="128" height="128" viewBox="0 0 1024 1024" version="1.1" xmlns="http://www.w3.org/2000/svg"><path fill="currentColor"  d="M558.996211 67.045053v99.354947l-0.080843 2.883368c-5.551158 88.980211 18.054737 147.941053 69.901474 183.376843 114.903579 84.722526 169.633684 207.952842 165.618526 365.729684l35.84-10.509474 101.322106-38.022737c4.958316 0 9.889684 0 10.940631 3.907369l0.188632 1.643789c5.551158 0 5.551158 5.551158 5.551158 11.129263l-200.218948 255.838316c-5.551158 5.578105-11.129263 5.578105-16.707368 0l-200.218947-255.838316v-11.129263c0-5.551158 5.578105-5.551158 11.129263-5.551158l120.885894 47.265684 38.804211 8.81179c5.928421-133.847579-36.486737-231.639579-126.571789-298.09179l-6.898527-4.877473a235.52 235.52 0 0 1-53.005473-53.544421 234.334316 234.334316 0 0 1-59.957895 63.946105l-6.898527 4.904421c-90.085053 66.425263-132.500211 164.217263-126.571789 298.064842l38.804211-8.811789 120.885894-47.265685c5.551158 0 11.129263 0 11.129263 5.551158v11.129263l-200.218947 255.838316c-5.578105 5.578105-11.156211 5.578105-16.707368 0l-200.218948-255.838316c0-5.578105 0-11.129263 5.551158-11.129263l0.188632-1.643789c1.050947-3.907368 5.982316-3.907368 10.940631-3.907369l101.322106 37.99579 35.84 10.536421c-4.042105-157.776842 50.714947-281.007158 165.618526-365.729684 51.846737-35.462737 75.452632-94.396632 69.901474-183.376842l-0.080843-2.883369V77.446737h1.724632v-10.401684h92.26779z" p-id="7958"></path></svg>