<?xml version="1.0" standalone="no"?><!DOCTYPE svg PUBLIC "-//W3C//DTD SVG 1.1//EN" "http://www.w3.org/Graphics/SVG/1.1/DTD/svg11.dtd"><svg t="1753689055070" class="icon" viewBox="0 0 1211 1024" version="1.1" xmlns="http://www.w3.org/2000/svg" p-id="12178" xmlns:xlink="http://www.w3.org/1999/xlink" width="302.75" height="256"><path d="M1115.016659 513.05665a505.686977 505.686977 0 0 1-21.571609 145.505963 511.011614 511.011614 0 0 1-91.35508 173.63097 511.387069 511.387069 0 0 1-156.752553 129.941637 509.697521 509.697521 0 0 1-194.98072 59.11713 513.025419 513.025419 0 0 1-195.868159-19.387142 513.929925 513.929925 0 0 1-133.883916-61.796515l36.572751-19.643134c139.703472 82.583081 318.164163 92.498512 471.230427 10.154357 153.083331-82.19056 242.919524-236.246661 250.019041-397.93133zM961.711468 74.320165A52.870921 52.870921 0 0 1 1032.99676 95.601649l158.13491 291.8311a52.273606 52.273606 0 0 1-21.383881 70.995168L243.926427 955.854878a52.853855 52.853855 0 0 1-71.234094-21.230285L14.574489 642.776427a52.478399 52.478399 0 0 1 21.332682-70.978102zM556.322232 853.167877l33.261919 19.028753 34.627211-16.451765-7.833362 37.408992 26.469593 27.698356-38.12577 4.078809-18.260777 33.705638-15.803251-34.934401-37.81858-6.945921 28.551663-25.769881-5.068646-37.81858zM1001.492654 112.616597a16.724823 16.724823 0 0 0-22.646775-6.826458l-925.838429 497.47816a16.690691 16.690691 0 0 0-6.826459 22.663842l158.100778 291.865232a16.741889 16.741889 0 0 0 22.697975 6.792326l925.821362-497.512293a16.946683 16.946683 0 0 0 6.894723-22.595577zM792.551827 799.921501l11.963369 36.350891 36.726346 10.751672-30.753195 22.595578 1.19463 38.2623-31.196915-22.476115-36.111965 12.816676 11.656177-36.385024-23.448884-30.258277 38.279365-0.085331 21.674006-31.57237z m100.041749-167.367695a311.832622 311.832622 0 0 1-141.171161 155.52379c-64.544165 34.593078-137.245947 45.686073-208.121652 32.289148l56.471877-30.360674c45.532478 0.426654 91.628139-10.205555 134.498298-33.261919a277.563801 277.563801 0 0 0 101.884893-93.778473z m17.57813 35.139195l28.688192 25.360293 37.272463-9.045058-15.461928 34.849071 20.308714 32.528074-38.194035-3.754552-24.745912 29.200176-8.19175-37.323661-35.617047-14.540357 33.142455-19.199414 2.798848-38.074572z m-563.59241-129.907505c19.506605-3.703354 29.780425-4.556661 30.82146-2.594054 0.44372 0.853307-0.238926 2.116202-2.047938 3.788684a10.05196 10.05196 0 0 0-3.208435 6.177945c-0.341323 2.423393 0.170661 9.215719 1.467688 20.32578 1.314093 11.110061 1.962607 23.090496 1.911409 35.924238 5.546497-0.785043 8.959727-1.160498 10.239688-1.109299 1.279961 0.034132 2.116202 0.409588 2.491657 1.109299 0.375455 0.699712-0.546117 2.730583-2.730583 6.041416l60.892009 114.565039 0.511984 1.023969a3.379097 3.379097 0 0 1 0.307191 1.518887c-0.051198 0.563183-0.989836 2.286864-2.815914 5.13691a60.567753 60.567753 0 0 1-5.939019 7.901625c-2.150334 2.406327-3.549758 3.771618-4.181206 4.112942-0.631447 0.341323-1.365292-0.273058-2.184467-1.809012l-5.290505-11.519649-2.355128-4.778521c-3.242568-6.519268-6.962988-13.738248-11.144193-21.605741l-39.491063-74.254801-1.006902 7.713898c-2.269797 15.581391-6.143813 31.913693-11.570847 49.031038l-4.60786-1.058102 1.19463-8.754933c5.88782-46.590579 2.116202-92.225454-11.263656-136.887558z m128.849403-40.634494c0.97277-0.529051 3.293766-0.511984 6.945922 0.085331 3.652155 0.580249 8.533073 1.553019 14.659819 2.901245 6.126746 1.331159 10.103159 2.286864 11.946303 2.850046 1.826078 0.563183 2.952443 1.262895 3.413229 2.099136 0.75091 1.41649-0.358389 2.901245-3.310832 4.47133l-63.076477 33.534978 21.8788 41.129412 25.735748-13.669983 1.621284-16.29817 0.255992-1.314093c0.341323-1.19463 0.938638-2.030871 1.774879-2.474591 1.126366-0.597315 3.669221-0.580249 7.594436 0.034132l14.915811 2.61112 2.167401 0.341323c4.744389 0.870373 7.457906 1.962607 8.140552 3.242568 0.785043 1.484755-0.085331 2.901245-2.628187 4.232404l-56.113489 29.84869 20.530574 38.603623 28.483398-15.137672 2.116202-17.919453 0.273059-1.33116a4.266537 4.266537 0 0 1 2.08207-2.628186c1.331159-0.699712 7.133649 0.102397 17.373336 2.38926 10.239688 2.320996 15.700854 4.078809 16.332302 5.273439 0.631447 1.19463-0.460786 2.542856-3.2767 4.027611l-59.902173 31.862495 25.804013 48.519053 0.341323 0.836241a2.764716 2.764716 0 0 1-0.017066 1.570086c-0.238926 0.75091-1.177564 2.559922-2.815914 5.409968a49.321162 49.321162 0 0 1-5.836622 8.106419c-2.252731 2.559922-3.754552 4.02761-4.522529 4.437198-0.785043 0.409588-1.501821 0-2.184467-1.279961l-9.574108-20.069787-4.539595-8.874396-4.573727-8.737867-60.00457-112.875491-3.58389 1.911409-0.017066 4.932116c-0.426654 21.674006-5.239307 47.938805-14.455026 78.811463l-4.846786-1.484755 1.245829-8.550139c2.645253-19.745531 3.413229-38.057506 2.355128-54.918859-1.228763-19.284745-4.880918-40.395568-10.9394-63.315402 10.27382-2.047938 17.612263-3.020708 21.998263-2.918311 4.386 0.102397 6.758194 0.511984 7.133649 1.211697 0.511984 0.989836-0.204794 2.320996-2.201533 4.010544-1.979673 1.689548-2.74765 4.300669-2.30393 7.850427 0.44372 3.566825 1.041035 11.997501 1.809012 25.292029l48.519053-25.786947 1.655417-18.755695 0.119463-1.228762c0.204794-1.501821 0.699712-2.457525 1.50182-2.867113z m280.00426-154.841144c1.399424-0.75091 6.945921-0.170661 16.60536 1.706615 9.659439 1.911408 14.915812 3.635089 15.734987 5.171042 0.511984 0.989836-1.041035 2.457525-4.69319 4.403066l-137.348344 73.026039 3.174303 6.672863c9.335182 19.677267 16.895485 36.060767 22.732107 49.184634l3.310832 7.543236c3.088972 7.133649 5.546497 13.089734 7.338443 17.817057 5.734225 15.001142 8.533073 30.514269 8.396544 46.556446-0.136529 16.042177-4.181206 34.371218-12.151096 55.021256l-4.300669-0.955705 1.245829-6.143812c4.095875-22.356651 3.310832-43.074953-2.372195-62.120772-6.177945-20.803632-18.499702-48.570252-36.982338-83.29986a1439.529428 1439.529428 0 0 0-21.503345-38.910813c9.181587-1.075167 19.864994-0.989836 32.084355 0.273059l47.887606-25.46269-2.815914-2.952444a54.441006 54.441006 0 0 0-30.241211-15.461928l-1.279961-3.925214 4.795587-1.109299c10.922334-2.406327 19.899126-3.515626 26.964511-3.310833 8.038155 0.22186 13.209197 2.474591 15.496061 6.758194 2.269797 4.300669 2.969509 8.311213 2.047937 12.031633l42.836027-22.766239 1.535953-15.973912 0.170662-1.399424c0.255992-1.245829 0.682646-2.047938 1.331159-2.372195z m27.698355 48.041202c0.989836-0.511984 3.549758-0.290124 7.679766 0.682645 4.095875 0.955704 8.396544 2.047938 12.850808 3.293767 4.437198 1.245829 6.894723 2.286864 7.338443 3.140171 0.511984 0.97277-0.477852 2.150334-3.003642 3.481493l-71.950872 38.2623 3.2767 23.960869 36.282627-19.284745 0.102397-8.993859 0.170661-1.143432a4.147074 4.147074 0 0 1 2.184467-2.559922c1.553019-0.802109 4.266537-1.075167 8.10642-0.767976 3.856949 0.290124 7.96989 0.802109 12.338823 1.553019 4.368933 0.75091 6.792326 1.570085 7.270178 2.491657 0.494918 0.921572-0.170661 2.30393-1.979673 4.16414a12.543617 12.543617 0 0 0-3.344964 5.153976c-0.426654 1.587152-0.614381 4.266537-0.597315 8.038155 0.580249 17.373337-0.989836 33.278985-4.676124 47.682812 17.93652 2.542856 42.085116-0.921572 72.411658-10.35915l1.604218 4.010544-3.362031 1.706615c-6.433937 3.379097-11.144193 6.689929-14.147835 9.898364-3.49856 3.754552-5.13691 8.737867-4.915051 14.932878 0.085331 0.853307-0.22186 1.467689-0.921571 1.843144-1.826078 0.97277-9.574108 0.88744-23.244091-0.22186-13.669983-1.126366-24.643515-2.815914-32.886464-5.119844-7.765096 20.018589-22.868636 40.839288-45.25942 62.496228l-2.406326-2.508724 4.130007-5.409968c14.711018-19.813796 24.780044-39.422798 30.172946-58.827006a97.038107 97.038107 0 0 1-35.838906-22.612644c-0.819175 32.715802-10.444481 65.175612-28.87592 97.345298l-3.993478-1.399424 2.491657-5.990217c16.008045-40.139576 18.738628-83.692381 8.191751-130.658415l-18.346108 9.761835-0.938638 9.949564-0.170661 1.023968a2.969509 2.969509 0 0 1-1.450622 2.013806c-2.116202 1.126366-9.454645 0.88744-22.049461-0.733845 1.228763-2.099136 2.116202-4.317735 2.662319-6.689929 0.546117-2.355128 0.44372-8.260015-0.341323-17.680527a194.042082 194.042082 0 0 0-3.327899-24.336325c5.205175-0.409588 10.410349-0.563183 15.598458-0.44372 5.205175 0.119463 8.19175 0.290124 8.94266 0.511985a2.901245 2.901245 0 0 1 1.740747 1.518887c0.409588 0.767977-0.375455 2.184467-2.355128 4.232404a11.02473 11.02473 0 0 0-3.293766 6.758194c-0.22186 2.457525 0.170661 8.567205 1.19463 18.294909l20.684169-10.990599-1.19463-4.829719c-4.266537-17.236808-7.952824-29.234308-11.058863-36.009568 7.031252-1.382358 13.1068-2.423393 18.260777-3.071907 5.153976-0.682646 8.277081-0.88744 9.38638-0.682645 1.109299 0.238926 1.877276 0.767977 2.338062 1.604217 0.44372 0.853307 0.085331 2.047938-1.092233 3.566825-2.355128 2.696451-3.174303 5.375836-2.457525 8.072287l3.754552 21.810535 43.655202-23.209959 2.645252-14.386761 0.255992-1.314094c0.392521-1.587152 0.97277-2.594054 1.757813-3.020707zM552.772474 2.147433c66.063052-6.143813 132.00664 0.290124 195.868159 19.370076a511.643062 511.643062 0 0 1 133.849784 61.847714l-36.521552 19.626068c-139.737605-82.600147-318.164163-92.447314-471.26456-10.205556-153.066265 82.224692-242.902458 236.280793-250.189703 397.948396l-36.606883 19.591936c0.017066-49.099302 7.321377-97.840216 21.588675-145.437697a508.707684 508.707684 0 0 1 91.525741-173.613905 510.482564 510.482564 0 0 1 156.718421-129.992835A510.107108 510.107108 0 0 1 552.772474 2.147433z m226.843214 448.276461l-39.439863 20.974294 0.136529 2.218599c0.119463 2.047938 0.170661 3.703354 0.136529 4.949182 10.478614 8.140552 23.517149 14.181967 39.149739 18.141313 2.372194-13.891843 2.372194-29.319639 0.017066-46.283388z m-22.356651-66.728631c4.300669-0.563183 7.338443-0.460786 9.096256 0.30719 1.774879 0.785043 3.583891 2.918311 5.461167 6.433937 1.877276 3.515626 2.372194 7.167781 1.50182 10.973532-0.853307 3.805751-2.150334 6.143813-3.839882 7.048319-1.689548 0.904506-3.413229 0.546117-5.153977-1.041035a61.096803 61.096803 0 0 0-13.140932-9.932497 73.794016 73.794016 0 0 0-15.137672-5.614762l0.22186-3.635089 3.515626-0.870374c7.901626-1.945541 13.721182-3.174303 17.475734-3.669221z m-305.569347-148.390141a314.494941 314.494941 0 0 1 208.155785-32.255016l-56.488944 30.343607a278.348844 278.348844 0 0 0-134.549496 33.210721 276.915287 276.915287 0 0 0-101.85076 93.863804L310.484397 390.845978a312.191012 312.191012 0 0 1 141.205293-155.52379z m-159.483136 16.554162l7.918692 37.477257 35.395187 14.779282-33.278985 19.079952-3.123104 38.091638-28.500465-25.718683-37.306595 8.772 15.700854-34.917335-19.967391-32.647538 38.159903 4.061743 25.001904-28.978316z m100.980387-126.852665l31.333444 22.049461 35.941304-13.192131-11.348987 36.453288 23.704877 30.121748-38.330564 0.409588-21.383881 31.708899-12.270559-36.248494-36.914075-10.410349 30.753196-22.646776-1.484755-38.245234zM617.965152 72.425823l15.973913 34.814938 37.767381 6.621665-28.159141 25.889344 5.35877 37.920976-33.449646-18.806893-34.507748 16.810154 7.560303-37.460191L561.817531 110.79052l38.176969-4.539595 17.953586-33.825102z" fill="#d81e06" opacity=".32" p-id="12179"></path></svg>