<?xml version="1.0" standalone="no"?><!DOCTYPE svg PUBLIC "-//W3C//DTD SVG 1.1//EN" "http://www.w3.org/Graphics/SVG/1.1/DTD/svg11.dtd"><svg t="1753688939590" class="icon" viewBox="0 0 1024 1024" version="1.1" xmlns="http://www.w3.org/2000/svg" p-id="7250" xmlns:xlink="http://www.w3.org/1999/xlink" width="256" height="256"><path d="M522.666667 64C775.978667 64 981.333333 269.354667 981.333333 522.666667S775.978667 981.333333 522.666667 981.333333 64 775.978667 64 522.666667 269.354667 64 522.666667 64z m0 28.672c-237.098667 0-429.994667 192.896-429.994667 429.994667 0 237.098667 192.896 429.994667 429.994667 429.994666 237.098667 0 429.994667-192.896 429.994666-429.994666 0-237.098667-192.896-429.994667-429.994666-429.994667zM152.32 693.696c66.581333 143.914667 211.946667 236.906667 370.346667 236.906667 83.2 0 163.178667-24.874667 231.36-71.978667a2.410667 2.410667 0 0 1 3.328 0.618667 2.389333 2.389333 0 0 1-0.597334 3.306666A410.112 410.112 0 0 1 522.666667 935.381333c-160.256 0-307.328-94.08-374.656-239.68a2.389333 2.389333 0 0 1 4.330666-2.005333z m742.933333-1.408l0.917334 0.213333c1.216 0.554667 1.728 1.984 1.173333 3.178667a416.106667 416.106667 0 0 1-120.448 152.042667 2.389333 2.389333 0 1 1-2.944-3.754667 411.306667 411.306667 0 0 0 119.04-150.293333 2.368 2.368 0 0 1 1.365333-1.237334l0.896-0.149333z m-117.141333-1.578667c2.176 1.493333 2.730667 4.48 1.237333 6.656A310.528 310.528 0 0 1 522.666667 833.216c-102.72 0-198.677333-50.773333-256.682667-135.829333a4.757333 4.757333 0 1 1 7.893333-5.376A301.013333 301.013333 0 0 0 522.666667 823.658667a301.013333 301.013333 0 0 0 248.789333-131.669334 4.778667 4.778667 0 0 1 6.656-1.28z m-282.218667 9.301334l29.952 18.688 32.426667-14.08-8.533333 34.282666 23.381333 26.453334-35.242667 2.496-17.92 30.421333-13.248-32.746667-34.496-7.658666 27.050667-22.698667-3.370667-35.157333z m399.445334-41.173334a2.389333 2.389333 0 0 1 0.917333 4.586667l-0.917333 0.192H140.437333a2.389333 2.389333 0 0 1-0.917333-4.586667l0.917333-0.213333H895.36z m-646.869334-193.621333v15.850667h57.386667v96.768h-19.712v-9.472h-37.674667v38.058666h-20.074666v-38.058666H191.296v10.048h-19.690667V481.066667h56.789334v-15.850667h20.074666z m579.136-37.866667v17.194667h73.024v19.52h-73.024v13.717333h60.266667v59.498667h-45.013333c13.525333 17.365333 35.370667 32.832 65.301333 46.357333l-14.101333 17.578667c-30.912-18.56-52.928-39.04-66.453334-61.632v66.069333h-20.48v-66.453333c-14.293333 25.109333-37.077333 45.781333-68.181333 62.016l-11.776-18.752c28.970667-11.968 50.410667-27.029333 64.512-45.184h-44.437333v-59.52h59.882666v-13.696h-73.386666v-19.52h73.386666v-17.194667h20.48z m-124.8 96.405334v81.322666h-19.498666v-7.146666h-49.066667v7.146666h-19.690667V523.733333h88.277334z m-318.336-96.789334v33.429334h17.002667v19.498666h-17.002667v35.541334c5.226667-1.92 10.453333-4.053333 15.658667-6.186667v18.944c-5.226667 2.133333-10.453333 4.266667-15.658667 6.186667v50.026666c0 13.333333-6.570667 20.096-19.306666 20.096h-16.426667l-4.266667-19.712c4.650667 0.768 9.28 1.344 13.738667 1.344 4.245333 0 6.570667-2.304 6.570667-6.954666v-38.229334c-5.802667 1.728-11.413333 3.285333-17.194667 4.821334l-4.842667-19.328c7.338667-1.344 14.677333-2.88 22.037334-4.821334v-41.728h-19.52v-19.498666h19.52v-33.429334h19.690666z m42.304 0.96v54.293334h23.765334v19.712h-23.765334v76.672a157.525333 157.525333 0 0 0 21.632-8.106667l3.669334 18.56c-14.293333 5.76-30.506667 10.602667-48.661334 14.848l-5.034666-18.730667c5.610667-1.728 8.512-5.589333 8.512-11.584v-145.664h19.882666z m50.218667-0.384v53.525334c10.048-3.882667 19.712-8.512 28.992-14.293334l11.584 16.597334c-14.293333 7.530667-27.818667 13.333333-40.576 17.578666v77.269334c0 4.266667 1.941333 6.378667 5.802667 6.378666h7.530666c2.901333 0 5.034667-1.536 6.570667-4.437333 1.557333-3.093333 2.709333-12.565333 3.285333-28.8l18.346667 5.802667c-1.536 22.613333-4.245333 36.117333-8.106667 40.384-3.477333 4.053333-9.088 6.186667-16.426666 6.186666h-17.386667c-13.12 0-19.498667-7.168-19.498667-21.077333v-155.093333h19.882667z m130.197333 135.808v18.922667c-19.690667 6.954667-41.898667 12.757333-67.029333 17.194667l-2.496-19.690667c26.453333-4.053333 49.642667-9.472 69.546667-16.426667z m76.117334-20.672h-49.066667v36.309334h49.066667v-36.309334z m-115.904-116.864l18.944 7.338667c-9.088 22.613333-18.346667 41.152-27.818667 55.637333 6.954667-0.768 13.909333-1.557333 20.864-2.517333 3.285333-6.378667 6.741333-13.141333 10.624-20.266667l17.578667 6.549334c-15.850667 29.162667-29.376 50.624-40.192 64.512 12.373333-2.688 24.746667-6.186667 37.482666-10.410667v17.962667c-21.824 7.338667-42.304 12.373333-61.632 14.869333l-5.397333-18.154667c3.477333-1.557333 6.570667-3.477333 9.066667-5.802666 5.802667-5.802667 13.141333-16.213333 22.037333-31.104-9.28 1.173333-18.944 2.517333-28.992 3.861333l-4.821333-18.346667a21.013333 21.013333 0 0 0 8.32-7.338666c9.258667-17.194667 17.173333-36.117333 23.936-56.789334z m-281.258667 107.989334h-37.674667v16.213333h37.674667v-16.213333z m-57.749333 0H191.296v16.213333h37.098667v-16.213333z m639.210666-37.290667h-40v22.4h40v-22.4z m-60.48 0h-39.594666v22.4h39.594666v-22.4z m-520.96 3.093333h-37.696v16.618667h37.674667v-16.64z m-57.770666 0H191.296v16.618667h37.098667v-16.64z m439.850666-72.064v21.248h43.84v19.328h-43.84v22.784h38.250667v19.328h-96v-19.328h37.461333v-22.784h-43.84v-19.328h43.84v-21.248h20.266667z m-425.749333-2.496c1.536 4.245333 3.093333 9.066667 4.629333 14.485334h73.408v37.461333h-19.712v-19.114667h-126.72v20.096h-19.690666v-38.442666h71.68a145.28 145.28 0 0 0-5.034667-11.008z m657.621333-43.306666a2.389333 2.389333 0 0 1 0.917334 4.565333l-0.917334 0.213333H145.216a2.389333 2.389333 0 0 1-0.917333-4.608l0.917333-0.192h754.901333zM522.666667 212.096c102.741333 0 198.698667 50.773333 256.704 135.872a4.757333 4.757333 0 1 1-7.893334 5.354667A301.013333 301.013333 0 0 0 522.666667 221.674667a301.013333 301.013333 0 0 0-248.810667 131.669333 4.778667 4.778667 0 1 1-7.893333-5.354667A310.506667 310.506667 0 0 1 522.666667 212.096zM282.496 190.016c0.768 1.066667 0.554667 2.56-0.512 3.328a410.432 410.432 0 0 0-129.664 158.314667 2.389333 2.389333 0 1 1-4.330667-1.984 415.189333 415.189333 0 0 1 131.157334-160.192 2.368 2.368 0 0 1 3.349333 0.533333zM522.666667 109.952c160.256 0 307.328 94.08 374.677333 239.701333a2.389333 2.389333 0 0 1-4.352 1.984C826.453333 207.722667 681.066667 114.730667 522.666667 114.730667a406.272 406.272 0 0 0-219.306667 63.957333 2.389333 2.389333 0 1 1-2.56-4.032 411.114667 411.114667 0 0 1 221.866667-64.704z m1.664 140.181333l14.186666 32.362667 34.688 6.634667-26.389333 23.488 4.394667 35.050666-30.485334-17.813333-31.978666 14.997333 7.530666-34.517333-24.149333-25.770667 35.136-3.498666 17.066667-30.933334z" fill="#2c2c2c" p-id="7251"></path></svg>