<?xml version="1.0" standalone="no"?><!DOCTYPE svg PUBLIC "-//W3C//DTD SVG 1.1//EN" "http://www.w3.org/Graphics/SVG/1.1/DTD/svg11.dtd"><svg t="1753688875709" class="icon" viewBox="0 0 1169 1024" version="1.1" xmlns="http://www.w3.org/2000/svg" p-id="5035" xmlns:xlink="http://www.w3.org/1999/xlink" width="292.25" height="256"><path d="M362.26329 204.611418l12.257827 29.230203 16.029466-27.344383 32.058932-2.82873-21.686925-23.572744 7.543278-31.116022-28.287293 13.200737-27.344383-16.029466 3.771639 32.058932-24.515653 19.801105 30.173112 6.600368z m221.583794-97.119705l-15.086557-28.287293-13.200736 29.230202-31.116022 5.657459 23.572744 21.686925-3.771639 31.116022 27.344383-16.029466 28.287293 14.143646-5.657459-32.058932 21.686924-22.629834-32.058931-2.828729zM430.152793 270.615101c40.54512-25.458564 85.804788-39.60221 133.893186-43.373849l42.430939-26.401473c-8.486188-0.94291-16.029466-0.94291-24.515654-0.94291-128.235727 0-244.213628 79.20442-290.416206 199.896869l42.430939-26.401473c22.629834-42.430939 55.631676-77.3186 96.176796-102.777164z m-191.410682 82.033149l25.458564 19.801105 0.94291-31.116022 26.401473-17.915285-30.173113-10.372007-8.486187-31.116023-18.858196 25.458564-32.058931-0.94291 18.858195 25.458564-11.314917 30.173112 29.230202-9.429098z m566.688766 475.22652l-11.314917-29.230203-16.029466 27.344383-32.058932 1.88582 20.744015 24.515654-7.543278 31.116022 29.230203-13.200737 27.344383 16.972376-2.82873-32.058932 24.515654-20.744015-32.058932-6.600368z" fill="#d81e06" opacity=".6" p-id="5036"></path><path d="M98.248557 521.429098c-4.714549-267.786372 207.440147-488.427256 475.226519-494.084715 78.26151-1.88582 155.58011 16.029466 225.355433 50.917127l26.401473-16.972376C576.303806-72.604052 266.086494 20.744015 132.193308 269.672192c-44.316759 82.033149-66.003683 175.381215-61.289134 268.729281l27.344383-16.972375zM583.847084 924.051565l15.086556 28.287293 13.200736-29.230202 31.116023-5.657459-23.572744-21.686924 4.714548-31.116023-27.344383 15.086557-28.287293-14.143647 6.600369 31.116022-22.629834 22.629835 31.116022 4.714548z" fill="#d81e06" opacity=".6" p-id="5037"></path><path d="M1067.559791 501.627993c5.657459 267.786372-207.440147 489.370166-475.22652 494.084714-78.26151 1.88582-155.58011-16.029466-225.355432-50.917127l-26.401474 16.972376c247.985267 134.836096 558.202578 42.430939 693.038674-206.497238 45.259669-82.976059 66.003683-176.324125 61.289135-270.615101l-27.344383 16.972376z m94.290976-153.694291l-180.095764-282.872929c-8.486188-14.143646-23.572744-22.629834-40.54512-22.629834-9.429098 0-17.915285 2.828729-25.458564 7.543278l-893.878453 565.745857C0.185942 629.86372-6.414427 660.036832 6.78631 682.666667l180.095764 282.872928c14.143646 22.629834 44.316759 29.230203 66.003684 15.086556l892.935543-565.745856c23.572744-14.143646 30.173112-43.373849 16.029466-66.946593 0 0.94291 0 0.94291 0 0z m-29.230203 43.373849l-892.935543 565.745856c-3.771639 1.88582-7.543278 3.771639-11.314917 3.771639-7.543278 0-14.143646-3.771639-17.915286-10.372007l-179.152854-282.872929c-5.657459-10.372007-2.828729-23.572744 6.600368-29.230202L930.837876 73.546961c10.372007-6.600368 23.572744-2.828729 29.230202 6.600369l179.152855 282.872928c5.657459 9.429098 2.828729 22.629834-6.600369 28.287293z" fill="#d81e06" opacity=".6" p-id="5038"></path><path d="M927.066236 685.495396l-11.314917-29.230203-16.029466 27.344383-32.058931 1.88582 20.744014 24.515654-7.543278 31.116022 29.230203-13.200737 27.344383 16.972376-2.828729-32.058932 24.515653-20.744015-32.058932-6.600368z" fill="#d81e06" opacity=".6" p-id="5039"></path><path d="M289.461227 574.467772l27.344383 43.373849-22.629834 14.143646-14.143646-21.686924-146.151013 92.405156 15.086556 23.572744-22.629834 14.143647-28.287293-44.316759 82.976059-52.802947c-3.771639-2.828729-8.486188-5.657459-14.143647-9.429097l22.629835-19.801105c4.714549 3.771639 10.372007 8.486188 16.029466 13.200736l83.918968-52.802946z m-12.257827 215.926335l-42.430939 27.344383 7.543278 11.314917-22.629834 14.143646-70.718232-112.206261 66.003683-41.48803-11.314917-17.915285 23.572744-15.086556 11.314917 17.915285 66.003683-41.488029 70.718232 112.206261-22.629834 14.143647-6.600368-11.314917-43.373849 27.344383 27.344383 44.316758-23.572744 15.086557-29.230203-44.316759z m-50.917127-79.20442l-42.430939 27.344383 12.257827 18.858195 42.430939-27.344383-12.257827-18.858195z m-17.915285 66.003683l12.257827 18.858195 42.430939-27.344383-12.257827-18.858195-42.430939 27.344383z m97.119705-89.576427l-12.257827-18.858195-43.373849 27.344383 12.257827 18.858195 43.373849-27.344383z m-18.858195 66.946593l43.373849-27.344383-12.257827-18.858195-43.373849 27.344383 12.257827 18.858195zM445.984248 618.78453c-5.657459 8.486188-10.372007 14.143646-13.200737 18.858196l36.773481 57.517495c9.429098 16.029466 7.543278 28.287293-7.543279 37.71639l-18.858195 12.257827-19.801105-19.801105c6.600368-2.828729 12.257827-5.657459 16.972376-8.486188 5.657459-2.828729 5.657459-7.543278 2.828729-13.200736l-28.287293-44.316759-16.029466 17.915286-19.801104-18.858196c8.486188-7.543278 16.029466-15.086556 21.686924-21.686924l-30.173112-48.088398-22.629835 14.143646-14.143646-22.629834 22.629834-14.143646-24.515654-38.6593 22.629835-14.143647 24.515654 38.6593 19.801104-12.257827 14.143647 22.629835-19.801105 12.257827 26.401473 41.488029c2.828729-3.771639 7.543278-10.372007 13.200737-18.858195l13.200737 21.686924z m11.314917-49.974217l55.631676 88.633518c7.543278-8.486188 14.143646-16.972376 18.858195-25.458564l17.915285 18.858195c-12.257827 16.972376-27.344383 33.944751-45.259668 52.802947l-19.801105-17.915286c5.657459-6.600368 5.657459-13.200737 0.942909-19.801105l-106.548802-167.837937 22.629834-14.143646 39.60221 63.174954 27.344383-16.972376 14.143646 22.629834-25.458563 16.029466z m132.007366 81.090239c-15.086556 9.429098-27.344383 6.600368-37.71639-10.372007l-113.149172-179.152854 22.629835-14.143647 38.6593 62.232044c9.429098-12.257827 16.972376-25.458564 22.629834-37.71639l25.458564 10.372007c-10.372007 18.858195-21.686924 34.887661-33.944752 49.974218l56.574586 89.576427c2.828729 4.714549 6.600368 6.600368 11.314917 3.771639l8.486188-5.657459c2.828729-1.88582 4.714549-5.657459 4.714549-10.372007-0.94291-4.714549-6.600368-16.972376-17.915286-35.830571l25.458564-6.600368c15.086556 27.344383 21.686924 45.259669 20.744015 52.802946s-5.657459 14.143646-14.143647 18.858196l-19.801105 12.257826zM676.054229 462.26151c-2.828729 4.714549-8.486188 13.200737-16.972376 26.401473l38.659301 61.289135c9.429098 15.086556 6.600368 27.344383-8.486188 37.71639l-19.801105 12.257827-19.801105-18.858195c6.600368-2.828729 12.257827-6.600368 17.915285-9.429098 4.714549-2.828729 5.657459-7.543278 2.82873-12.257827l-29.230203-46.202578c-8.486188 10.372007-16.029466 19.801105-21.686925 26.401473l-20.744014-19.801104c9.429098-8.486188 17.915285-18.858195 27.344383-30.173113l-28.287293-45.259668-28.287293 17.915285-14.143646-22.629834 28.287293-17.915286-23.572744-37.71639 23.572744-15.086556 23.572744 37.71639 24.515653-15.086556 14.143647 22.629834-24.515654 15.086557 22.629834 35.83057c7.543278-10.372007 13.200737-19.801105 16.972376-27.344383l15.086556 24.515654z m134.836096-41.488029l-82.976059 52.802946 23.572744 36.773481 95.233886-60.346225 14.143646 22.629834-118.80663 75.432781-122.578269-193.296501 114.092081-72.604051 14.143647 22.629834-91.462247 57.517496 18.858195 30.173112 82.976059-52.802947 52.802947 81.09024z m-120.692449-7.543278l24.515653 38.6593 60.346225-38.6593-24.515654-38.659301-60.346224 38.659301zM811.833235 234.077348c6.600368 32.058932 10.372007 59.403315 10.372007 82.976059l16.029466-13.200737-4.714549-32.058932 25.458564-5.657458c5.657459 44.316759 7.543278 78.26151 6.600368 101.834254 9.429098-9.429098 19.801105-22.629834 31.116022-36.773481l13.200737 20.744015c-17.915285 22.629834-35.830571 42.430939-54.688766 57.517496l-18.858196-16.972376c2.828729-4.714549 4.714549-8.486188 5.657459-13.200737 1.88582-10.372007 0.94291-27.344383-0.94291-49.974217l-24.515654 21.686924-18.858195-17.915285c2.828729-3.771639 3.771639-8.486188 3.771639-14.143646-2.828729-26.401473-8.486188-52.802947-16.972375-81.09024l27.344383-3.771639z m172.552486-32.058932l47.145488 74.489871-88.633518 56.574586 22.629835 35.830571c2.828729 4.714549 7.543278 5.657459 13.200736 2.828729l54.688766-34.887661c5.657459-3.771639 8.486188-8.486188 7.543278-14.143646 0-3.771639-3.771639-13.200737-11.314917-28.287293l25.458564-6.600369c6.600368 15.086556 11.314917 26.401473 13.200737 33.944752 2.828729 12.257827-1.88582 22.629834-14.143647 31.116022l-71.661142 45.259668c-14.143646 8.486188-24.515654 6.600368-33.001841-6.600368l-63.174954-100.891344-23.572744-7.543278c6.600368-24.515654 6.600368-54.688766 0.942909-90.519337l25.458564-9.429098 2.828729 17.915285 49.974218-32.058931 10.372007 16.972375c0.94291 12.257827 0.94291 24.515654 0 36.773481l32.058932-20.744015z m-47.145488 190.467772c-14.143646 20.744015-32.058932 42.430939-54.688766 65.060773l-16.972376-20.744014c24.515654-22.629834 43.373849-45.259669 58.460405-66.003684l13.200737 21.686925z m-11.314917-152.751381c0.94291-10.372007 1.88582-21.686924 1.885819-33.001842l-33.944751 21.686925c0 10.372007 0 20.744015-0.94291 33.001841l33.001842-21.686924z m5.657458 25.458563l-22.629834 14.143647 20.744015 32.058931 22.629834-14.143646-20.744015-32.058932z m41.48803 19.801105l23.572744-15.086556-20.744015-32.058932-23.572744 15.086556 20.744015 32.058932z" fill="#d81e06" opacity=".6" p-id="5040"></path></svg>