<?xml version="1.0" standalone="no"?><!DOCTYPE svg PUBLIC "-//W3C//DTD SVG 1.1//EN" "http://www.w3.org/Graphics/SVG/1.1/DTD/svg11.dtd"><svg t="1760270186112" class="icon" viewBox="0 0 1024 1024" version="1.1" xmlns="http://www.w3.org/2000/svg" p-id="2362" width="128" height="128" xmlns:xlink="http://www.w3.org/1999/xlink"><path d="M936.999 234.579C782.773 0.151 467.589-65.027 232.933 89.043c-234.657 154.07-299.9 468.951-145.68 703.379 154.221 234.422 469.42 299.606 704.067 145.537 234.646-154.07 299.9-468.952 145.679-703.38zM768.373 903.238c-215.487 141.477-504.865 81.556-646.477-133.635C-19.7 554.326 40.281 265.236 255.666 123.764 471.158-17.703 760.532 42.218 902.138 257.398c141.604 215.18 81.722 504.368-133.765 645.84z m108.641-629.372C744.54 72.574 473.844 16.626 272.354 148.867 70.865 281.109 14.76 551.65 147.228 752.936c132.372 201.298 403.176 257.344 604.659 125 201.495-132.344 257.595-402.778 125.127-604.07zM740.467 860.685c-191.95 125.993-449.843 72.712-575.96-119.06C38.389 549.861 91.718 292.221 283.672 166.227c191.956-125.994 449.849-72.718 575.966 119.05 126.216 191.766 72.79 449.408-119.171 575.408z m-349.048-530.57c60.479-39.683 133.368-45.637 196.425-22.519l21.737-14.289c-72.387-31.946-158.883-27.68-229.984 18.942-71.1 46.627-109.23 124.308-108.636 203.375l21.748-14.387c3.772-67.053 38.232-131.438 98.71-171.122z m253.125 384.626c71.096-46.627 109.231-124.313 108.636-203.375l-21.742 14.29c-3.768 67.069-38.231 131.45-98.709 171.133-60.474 39.688-133.364 45.627-196.42 22.524l-21.747 14.386c72.384 31.937 158.887 27.67 229.982-18.958zM326.868 293.408l14.796-39.089 41.71 1.986-32.574-26.09 14.797-39.089-34.954 22.92-32.674-26.095 11.023 40.277-34.952 22.915 41.801 1.986 11.027 40.279z m-40.216 41.274l-40.617-9.824-3.077-41.665-21.95 35.513-40.611-9.916 27.01 31.943-21.946 35.518 38.629-15.874 27.111 31.845-3.178-41.669 38.629-15.871z m150.647-98.813l29.888-29.168 37.043 19.349-18.473-37.401 29.888-29.168-41.406 6.05-18.473-37.499-7.052 41.171-41.405 6.055 37.037 19.44-7.047 41.171z m124.429-5.556l39.513-13.787 25.328 33.136-0.997-41.669 39.528-13.888-40.124-12.005-0.895-41.664-23.827 34.324-40.016-12.004 25.311 33.232-23.821 34.325zM191.222 454.819l-20.456-36.407-4.866 41.465-41.015 8.138 37.933 17.459-4.866 41.466 28.403-30.651 37.932 17.459-20.456-36.407 28.403-30.758-41.012 8.236z m506.055 278.682L682.48 772.58l-41.709-1.986 32.572 26.094-14.795 39.09 34.957-22.916 32.675 26.08-11.023-40.268 34.948-22.919-41.807-1.986-11.021-40.268z m141.412-82.846l-38.635 15.874-27.111-31.85 3.178 41.674-38.629 15.875 40.617 9.818 3.076 41.66 21.947-35.514 40.622 9.922-27.017-31.943 21.952-35.516z m-251.843 140.38l-29.888 29.168-37.042-19.35 18.473 37.408-29.888 29.163 41.409-6.06 18.469 37.505 7.047-41.162 41.41-6.064-37.032-19.435 7.042-41.173z m-124.423 5.553l-39.524 13.791-25.323-33.136 0.992 41.67-39.524 13.888 40.119 12.01 0.896 41.658 23.832-34.323 40.021 11.997-25.323-33.227 23.834-34.328zM861.332 541.43l4.866-41.472-28.407 30.656-37.934-17.459 20.457 36.411-28.403 30.744 41.019-8.225 20.451 36.408 4.867-41.467 41.014-8.133-37.93-17.463z" fill="#e0620d" p-id="2363"></path><path d="M375.336 584.912l-23.565-36.422-72.389 46.838c-2.721 1.76-4.607 3.482-5.662 5.164l-6.729-4.436c2.442-0.863 5.122-2.242 8.045-4.133l72.69-47.033-0.488-8.045c-0.036-2.262 0.477-3.738 1.534-4.424 1.058-0.684 3.35-0.951 6.876-0.805l10.08 0.339c3.094 0.142 5.049 0.844 5.863 2.103 0.815 1.261-0.338 3.9-3.454 7.916l21.415 33.096c1.825 2.822 3.212 4.857 4.16 6.1l2.595 3.68c0.653 1.009 0.71 2.258 0.173 3.748-0.535 1.491-2.025 3.883-4.467 7.178-2.443 3.296-3.99 5.154-4.645 5.578-0.656 0.424-1.438-0.068-2.352-1.48l-6.16-9.521-62.717 40.58 31.584 48.813c1.955 3.022 3.979 4.606 6.076 4.751 2.094 0.146 7.72-2.424 16.881-7.707 9.157-5.281 17.843-10.58 26.056-15.894 8.21-5.312 15.744-10.401 22.603-15.268 6.854-4.864 10.867-7.997 12.036-9.396 1.166-1.396 1.841-3.119 2.019-5.164s-0.195-4.661-1.116-7.854c-0.921-3.189-2.474-7.189-4.653-11.997-2.182-4.807-5.28-11.195-9.298-19.175l4.08-2.64c5.826 9.666 10.96 16.887 15.405 21.654 4.443 4.772 8.701 6.986 12.766 6.641 2.334-0.368 3.827-0.048 4.479 0.961 0.651 1.006 0.856 4.089 0.623 9.245-0.239 5.155-1.653 9.323-4.241 12.499-2.591 3.176-8.884 8.139-18.877 14.894-9.996 6.752-22.449 14.954-37.359 24.601-14.911 9.648-25.299 15.797-31.158 18.445-5.863 2.648-10.981 3.96-15.357 3.934-4.379-0.027-8.715-3.365-13.018-10.014l-39.016-60.3c-4.432-6.851-8.232-12.394-11.404-16.633 7.965-3.149 13.92-5.325 17.863-6.521 3.945-1.191 6.145-1.436 6.601-0.732 0.587 0.906-0.498 3.538-3.253 7.895l6.16 9.521 62.715-40.58zM407.386 490.639c12.19-3.027 22.215-4.652 30.073-4.88 7.858-0.224 13.205 1.854 16.04 6.236 2.836 4.383 4.137 8.546 3.898 12.486-0.236 3.941-1.363 6.564-3.379 7.868-2.016 1.304-4.648 0.435-7.902-2.605-8.748-7.773-21.689-12.979-38.829-15.611l0.099-3.494z m79.835 98.205l-31.29-48.36-14.508 9.388c-2.721 1.76-4.607 3.482-5.664 5.164l-6.924-4.738c2.442-0.864 5.121-2.242 8.045-4.134l15.566-10.071 0.418-8.632c0.052-1.462 0.557-2.505 1.515-3.125 0.956-0.618 4.544-0.651 10.761-0.101 6.217 0.553 9.57 1.203 10.059 1.959s0.391 1.821-0.293 3.191c-0.686 1.375-1.928 3.429-3.729 6.166l30.703 47.452c10.096 1.47 19.957-0.302 29.58-5.311a346.993 346.993 0 0 0 28.184-16.415c19.848-12.842 37.131-25.668 51.854-38.48l2.205 3.075c-3.877 3.507-6.545 6.343-8.006 8.503-1.463 2.159-2.078 4.025-1.849 5.592 0.228 1.568 0.821 3.147 1.782 4.742 0.959 1.595 1.318 2.648 1.08 3.16-0.242 0.512-1.167 1.292-2.777 2.334-11.387 7.367-24.73 15.572-40.03 24.614-15.303 9.044-25.827 14.315-31.571 15.817-5.75 1.502-14.743 0.856-26.984-1.942-3.154-0.676-5.637-0.427-7.449 0.747-1.814 1.174-3.235 2.735-4.259 4.684-1.026 1.951-2.204 6.037-3.538 12.26s-2.021 10.741-2.059 13.552c-0.039 2.813-0.311 4.382-0.814 4.707-0.505 0.327-2.193-0.295-5.066-1.868-2.875-1.569-6.953-4.006-12.232-7.307 7.156-12.35 12.921-21.224 17.29-26.623z m-14.355-132.856l30.527-19.751 0.32-8.784c0.019-1.297 0.429-2.207 1.236-2.729 0.805-0.521 4.336-0.587 10.588-0.204 6.252 0.386 9.688 1.058 10.307 2.014 0.619 0.959-0.403 3.798-3.063 8.521l16.818 25.993 9.396 13.86c0.522 0.808 0.771 1.468 0.747 1.982-0.023 0.518-0.498 1.716-1.422 3.6-0.925 1.885-2.242 3.99-3.956 6.312-1.713 2.324-2.796 3.631-3.25 3.924-0.453 0.293-1.038-0.113-1.755-1.222l-3.129-4.836-35.213 22.783 27.672 42.768 17.096-26.927 3.129 1.192c-6.111 15.959-10.006 26.948-11.686 32.966-1.681 6.019-2.441 10.477-2.28 13.374 0.01 1.566-0.187 2.479-0.588 2.738-1.11 0.719-7.593-1.019-19.449-5.209 1.604-3.039 2.506-5.016 2.702-5.93 0.195-0.91-0.064-1.922-0.782-3.031l-56.616-87.501c-3.258-5.037-6.262-9.455-9.004-13.254 7.853-2.22 15.069-3.104 21.655-2.649z m10.453 24.109l35.213-22.783-11.146-17.228-35.213 22.783 11.146 17.228z m38.049-18.401l-35.213 22.783 11.93 18.438 35.213-22.783-11.93-18.438z m28.801 47.827c19.92-1.023 32.225 2.089 36.919 9.344 1.238 1.914 2.11 4.422 2.616 7.524 0.508 3.103 0.156 5.045-1.053 5.827-1.209 0.783-2.396 1.049-3.556 0.801-1.163-0.25-3.43-1.211-6.8-2.891-17.459-8.427-39.457-12.488-65.988-12.188l-0.053-3.396c12.113-2.264 23.168-3.842 33.167-4.737 3.313-13.434 5.468-23.69 6.463-30.767 11.729 1.56 18.05 3.044 18.962 4.454 0.391 0.604 0.184 1.168-0.622 1.689-0.808 0.522-1.52 0.913-2.138 1.169-0.619 0.26-1.182 0.55-1.686 0.875-2.921 1.893-8.329 9.325-16.231 22.296zM586.095 391.088l80.246-51.922 0.152-7.388c0.089-1.628 0.61-2.753 1.568-3.373 0.957-0.619 3.249-0.886 6.877-0.804l9.582 0.231c2.863 0.007 4.604 0.489 5.224 1.445 0.62 0.958-0.706 3.993-3.97 9.107l58.767 90.826c2.737 4.231 4.71 7.169 5.92 8.819l3.183 4.587c0.651 1.006 0.922 1.869 0.814 2.582-0.111 0.715-1.488 2.786-4.131 6.21-2.644 3.426-4.318 5.366-5.022 5.822-0.706 0.457-1.515-0.022-2.427-1.431l-9.582-14.81-85.234 55.149 6.747 10.428c0.782 1.208 1.082 2.227 0.906 3.058-0.179 0.831-1.403 2.801-3.676 5.916-2.274 3.113-3.839 4.949-4.694 5.503-0.857 0.554-1.465 0.552-1.822-0.001a9.529 9.529 0 0 1-0.875-1.684 197.84 197.84 0 0 0-8.49-14.446l-63.362-97.929a218.81 218.81 0 0 0-8.765-12.553c10.215-2.322 17.571-3.436 22.064-3.342z m144.267 45.367l-59.94-92.639-85.233 55.149 59.939 92.639 85.234-55.149z m-101.047-36.886l22.971-14.862 0.25-7.236c-0.047-1.397 0.307-2.343 1.062-2.832 0.756-0.489 3.979-0.752 9.672-0.791 5.691-0.038 8.832 0.396 9.419 1.303 0.652 1.008-0.445 3.289-3.289 6.845l21.903 33.852 6.07 8.721c0.522 0.808 0.533 1.766 0.036 2.871-0.498 1.11-1.703 2.784-3.613 5.019-1.912 2.238-3.32 3.648-4.229 4.235-0.906 0.587-1.881 0.075-2.924-1.538l-4.4-6.801-25.994 16.818 4.303 6.65c0.783 1.208 1.178 2.099 1.188 2.663 0.008 0.566-0.379 1.567-1.164 3.004-0.785 1.439-1.847 2.946-3.184 4.525-1.336 1.58-2.484 2.679-3.44 3.297-0.958 0.62-1.874 0.141-2.751-1.435-1.365-2.548-3.282-5.736-5.76-9.565l-25.424-39.293a219.293 219.293 0 0 0-8.765-12.552c6.116-1.813 12.138-2.778 18.063-2.898z m49.995 24.253l-23.369-36.119-25.994 16.818 23.37 36.119 25.993-16.818z" p-id="2364" fill="#e0620d"></path></svg>