<svg xmlns="http://www.w3.org/2000/svg" viewBox="0 0 24 24" width="20" height="20" fill="currentColor">
  <!-- 头部 -->
  <circle cx="9" cy="6.5" r="3.5"/>
  
  <!-- 身体剪影 -->
  <path d="M2.5 19C2.5 15.41 5.41 12.5 9 12.5C10.96 12.5 12.71 13.37 13.9 14.75C13.06 16.12 12.5 17.74 12.5 19.5C12.5 19.67 12.51 19.84 12.52 20H2.5V19Z"/>
  
  <!-- 右下角清晰加号 (加批/加签) -->
  <path d="M18 13.5C18 13.22 17.78 13 17.5 13H16.5C16.22 13 16 13.22 16 13.5V16H13.5C13.22 16 13 16.22 13 16.5V17.5C13 17.78 13.22 18 13.5 18H16V20.5C16 20.78 16.22 21 16.5 21H17.5C17.78 21 18 20.78 18 20.5V18H20.5C20.78 18 21 17.78 21 17.5V16.5C21 16.22 20.78 16 20.5 16H18V13.5Z"/>
</svg>