<svg xmlns="http://www.w3.org/2000/svg" viewBox="0 0 24 24" width="20" height="20" fill="currentColor">
  <!-- 转出人 (左上) -->
  <circle cx="5.5" cy="6.5" r="2.5"/>
  <path d="M1.5 17.5C1.5 14.74 3.74 12.5 6.5 12.5C7.72 12.5 8.83 12.94 9.68 13.67C9.24 14.84 9 16.13 9 17.5H1.5Z"/>

  <!-- 中间转办箭头 -->
  <path d="M10 10H14.5M14.5 10L12.5 8M14.5 10L12.5 12" stroke="currentColor" stroke-width="2" stroke-linecap="round" stroke-linejoin="round"/>

  <!-- 接收人 (右下) -->
  <circle cx="18.5" cy="10.5" r="2.5"/>
  <path d="M14.5 20.5C14.5 17.74 16.74 15.5 19.5 15.5C20.8 15.5 21.97 16 22.84 16.84C22.95 18 23 19.2 23 20.5H14.5Z"/>
</svg>